ffmpeg started on 2016-11-28 at 03:22:32
Report written to "Output/NVENCh264/results/ffmpeg/crowd_run_2160p50llhp8000k.log"
Command line:
Tools/ffmpeg/ffmpeg -benchmark -y -i Input/y4m/crowd_run_2160p50.y4m -c:v h264_nvenc -preset llhp -b:v 8000k -an Output/NVENCh264/encoded/crowd_run_2160p50llhp8000k.mkv
ffmpeg version N-82227-gdb23fde Copyright (c) 2000-2016 the FFmpeg developers
  built with gcc 5.4.0 (Ubuntu 5.4.0-6ubuntu1~16.04.2) 20160609
  configuration: --prefix=/home/jaroslav/ffmpeg_build --pkg-config-flags=--static --extra-cflags=-I/home/jaroslav/ffmpeg_build/include --extra-ldflags=-L/home/jaroslav/ffmpeg_build/lib --bindir=/home/jaroslav/bin --enable-gpl --enable-libass --enable-libfdk-aac --enable-libfreetype --enable-libmp3lame --enable-libopus --enable-libtheora --enable-libvorbis --enable-libvpx --enable-libx264 --enable-libx265 --enable-nvenc --enable-libmfx --enable-libxvid --enable-libgsm --enable-libopencore-amrnb --enable-version3 --enable-nonfree
  libavutil      55. 35.100 / 55. 35.100
  libavcodec     57. 66.101 / 57. 66.101
  libavformat    57. 57.100 / 57. 57.100
  libavdevice    57.  2.100 / 57.  2.100
  libavfilter     6. 66.100 /  6. 66.100
  libswscale      4.  3.100 /  4.  3.100
  libswresample   2.  4.100 /  2.  4.100
  libpostproc    54.  2.100 / 54.  2.100
Input #0, yuv4mpegpipe, from 'Input/y4m/crowd_run_2160p50.y4m':
  Duration: 00:00:10.00, start: 0.000000, bitrate: 4976642 kb/s
    Stream #0:0: Video: rawvideo (I420 / 0x30323449), yuv420p(progressive), 3840x2160, SAR 1:1 DAR 16:9, 50 fps, 50 tbr, 50 tbn, 50 tbc
[h264_nvenc @ 0x463e1c0] The variable bitrate rate-control requires the 'qmin' and/or 'qmax' option set.
Output #0, matroska, to 'Output/NVENCh264/encoded/crowd_run_2160p50llhp8000k.mkv':
  Metadata:
    encoder         : Lavf57.57.100
    Stream #0:0: Video: h264 (h264_nvenc) (Main) (H264 / 0x34363248), yuv420p, 3840x2160 [SAR 1:1 DAR 16:9], q=-1--1, 8000 kb/s, 50 fps, 1k tbn, 50 tbc
    Metadata:
      encoder         : Lavc57.66.101 h264_nvenc
    Side data:
      cpb: bitrate max/min/avg: 0/0/8000000 buffer size: 16000000 vbv_delay: -1
Stream mapping:
  Stream #0:0 -> #0:0 (rawvideo (native) -> h264 (h264_nvenc))
Press [q] to stop, [?] for help
frame=   14 fps=0.0 q=0.0 size=       0kB time=00:00:00.00 bitrate=N/A speed=   0x    frame=   29 fps= 28 q=0.0 size=       0kB time=00:00:00.00 bitrate=N/A speed=   0x    frame=   46 fps= 30 q=46.0 size=       1kB time=00:00:00.30 bitrate=  19.9kbits/s speed=0.195x    frame=   64 fps= 31 q=44.0 size=       1kB time=00:00:00.66 bitrate=   9.0kbits/s speed=0.32x    frame=   82 fps= 32 q=45.0 size=       1kB time=00:00:01.02 bitrate=   5.9kbits/s speed=0.395x    frame=  100 fps= 32 q=45.0 size=       1kB time=00:00:01.38 bitrate=   4.3kbits/s speed=0.445x    frame=  118 fps= 32 q=45.0 size=       1kB time=00:00:01.74 bitrate=   3.4kbits/s speed=0.479x    frame=  136 fps= 33 q=45.0 size=       1kB time=00:00:02.10 bitrate=   2.8kbits/s speed=0.507x    frame=  154 fps= 33 q=45.0 size=       1kB time=00:00:02.46 bitrate=   2.4kbits/s speed=0.527x    frame=  158 fps= 26 q=45.0 size=       1kB time=00:00:02.54 bitrate=   2.4kbits/s speed=0.413x    frame=  159 fps= 18 q=45.0 size=       1kB time=00:00:02.56 bitrate=   2.3kbits/s speed=0.284x    frame=  176 fps= 18 q=45.0 size=       1kB time=00:00:02.90 bitrate=   2.1kbits/s speed=0.304x    frame=  193 fps= 19 q=45.0 size=       1kB time=00:00:03.24 bitrate=   1.8kbits/s speed=0.323x    frame=  210 fps= 20 q=45.0 size=       1kB time=00:00:03.58 bitrate=   1.7kbits/s speed=0.339x    frame=  227 fps= 21 q=44.0 size=       1kB time=00:00:03.92 bitrate=   1.5kbits/s speed=0.355x    frame=  245 fps= 21 q=44.0 size=       1kB time=00:00:04.28 bitrate=   1.4kbits/s speed=0.37x    frame=  262 fps= 22 q=45.0 size=       1kB time=00:00:04.62 bitrate=   1.3kbits/s speed=0.383x    frame=  280 fps= 22 q=44.0 size=       1kB time=00:00:04.98 bitrate=   1.2kbits/s speed=0.395x    frame=  294 fps= 22 q=45.0 size=    4790kB time=00:00:05.26 bitrate=7458.0kbits/s speed=0.401x    frame=  312 fps= 23 q=44.0 size=    4790kB time=00:00:05.62 bitrate=6980.4kbits/s speed=0.412x    frame=  330 fps= 23 q=45.0 size=    4790kB time=00:00:05.98 bitrate=6560.2kbits/s speed=0.422x    frame=  348 fps= 24 q=45.0 size=    4790kB time=00:00:06.34 bitrate=6187.8kbits/s speed=0.432x    frame=  366 fps= 24 q=44.0 size=    4790kB time=00:00:06.70 bitrate=5855.3kbits/s speed=0.441x    frame=  384 fps= 24 q=44.0 size=    4790kB time=00:00:07.06 bitrate=5556.8kbits/s speed=0.449x    frame=  402 fps= 25 q=45.0 size=    4790kB time=00:00:07.42 bitrate=5287.2kbits/s speed=0.457x    frame=  420 fps= 25 q=45.0 size=    4790kB time=00:00:07.78 bitrate=5042.6kbits/s speed=0.465x    frame=  438 fps= 25 q=45.0 size=    4790kB time=00:00:08.14 bitrate=4819.6kbits/s speed=0.472x    frame=  456 fps= 26 q=45.0 size=    4790kB time=00:00:08.50 bitrate=4615.5kbits/s speed=0.478x    frame=  474 fps= 26 q=45.0 size=    4790kB time=00:00:08.86 bitrate=4428.0kbits/s speed=0.485x    frame=  492 fps= 26 q=45.0 size=    4790kB time=00:00:09.22 bitrate=4255.1kbits/s speed=0.491x    frame=  500 fps= 26 q=45.0 Lsize=    9693kB time=00:00:09.98 bitrate=7955.6kbits/s speed=0.523x    
video:9688kB audio:0kB subtitle:0kB other streams:0kB global headers:0kB muxing overhead: 0.047980%
bench: utime=1.060s
bench: maxrss=1408808kB
